# xmcd
#
# Track frame offsets:
#  150
#  17837
#  34151
#  48093
#  66948
#  79825
#  98937
#  114814
#  130716
#  138998
#  148617
#  161251
#
# Disc length: 2303 seconds
#
# Revision: 0
# Processed by: cddbd v1.5.1PL2 Copyright (c) Steve Scherf et al.
# Submitted via: Collectorz.com_Music_Collector 6.9
#
DISCID=9608fd0c
DTITLE=Ike and Tina Turner - Ike and Tina Turner
DYEAR=1997
DGENRE=
TTITLE0=River Deep, Mountain High
TTITLE1=Come Together
TTITLE2=It's Gonna Work Out Fine
TTITLE3=I Idolize You
TTITLE4=I Want To Take You Higher
TTITLE5=Something
TTITLE6=Living For The City
TTITLE7=I Can't Believe What You Say
TTITLE8=My Babe
TTITLE9=Ain't Nobody's Business
TTITLE10=Rock Me Baby
TTITLE11=Poor Fool
EXTD=
EXTT0=
EXTT1=
EXTT2=
EXTT3=
EXTT4=
EXTT5=
EXTT6=
EXTT7=
EXTT8=
EXTT9=
EXTT10=
EXTT11=
PLAYORDER=
